<svg width="744" height="1133" viewBox="0 0 744 1133" fill="none" xmlns="http://www.w3.org/2000/svg">
<path fill-rule="evenodd" clip-rule="evenodd" d="M-139 825.504L-126.15 783.438C-112.443 741.372 -85.8867 657.24 -60.1867 688.789C-33.63 720.339 -7.07333 867.57 19.4833 888.603C45.1833 909.636 71.74 804.471 98.2967 730.855C124.853 657.24 150.553 615.174 177.11 594.14C203.667 573.107 230.223 573.107 256.78 625.69C282.48 678.273 309.037 783.438 335.593 857.054C362.15 930.669 387.85 972.736 414.407 962.219C440.963 951.702 467.52 888.603 493.22 857.054C519.777 825.504 546.333 825.504 572.89 772.921C599.447 720.339 625.147 615.174 651.703 604.657C678.26 594.14 704.817 678.273 730.517 751.888C757.073 825.504 783.63 888.603 810.187 941.186C835.887 993.769 862.443 1035.83 876.15 1056.87L889 1077.9V1141H876.15C862.443 1141 835.887 1141 810.187 1141C783.63 1141 757.073 1141 730.517 1141C704.817 1141 678.26 1141 651.703 1141C625.147 1141 599.447 1141 572.89 1141C546.333 1141 519.777 1141 493.22 1141C467.52 1141 440.963 1141 414.407 1141C387.85 1141 362.15 1141 335.593 1141C309.037 1141 282.48 1141 256.78 1141C230.223 1141 203.667 1141 177.11 1141C150.553 1141 124.853 1141 98.2967 1141C71.74 1141 45.1833 1141 19.4833 1141C-7.07333 1141 -33.63 1141 -60.1867 1141C-85.8867 1141 -112.443 1141 -126.15 1141H-139V825.504Z" fill="#BA71FF"/>
<g clip-path="url(#clip0_68_59)">
<path d="M474.828 996.376C469.847 992.178 466.822 985.547 467.616 979.091C468.409 972.635 473.323 966.7 479.696 965.329C486.07 963.958 493.335 967.753 495.271 973.964C496.337 961.99 497.564 949.514 503.946 939.316C509.725 930.083 519.734 923.476 530.581 922.294C541.428 921.112 552.849 925.576 559.614 934.117C566.379 942.658 568.036 955.074 563.298 964.88C559.807 972.103 553.377 977.479 546.639 981.852C524.868 995.865 498.756 1001.56 473.108 997.899L474.828 996.376Z" fill="#F2F2F2"/>
<path d="M548.888 925.824C539.937 933.096 531.726 941.23 524.373 950.107C512.866 963.952 503.554 979.475 496.762 996.135C496.265 997.35 498.244 997.879 498.735 996.677C509.848 969.602 527.589 945.737 550.334 927.267C551.356 926.437 549.901 925.001 548.888 925.824Z" fill="white"/>
<path d="M302.225 995.236C309.066 989.47 313.221 980.361 312.131 971.494C311.041 962.627 304.293 954.475 295.538 952.592C286.784 950.709 276.805 955.922 274.146 964.452C272.683 948.006 270.996 930.87 262.231 916.864C254.294 904.181 240.547 895.107 225.648 893.483C210.749 891.86 195.063 897.992 185.771 909.722C176.479 921.453 174.204 938.507 180.712 951.975C185.506 961.896 194.338 969.28 203.592 975.286C233.116 994.45 269.74 1002.44 304.588 997.327" fill="#F2F2F2"/>
<path d="M200.504 898.331C212.797 908.32 224.075 919.492 234.174 931.684C244.275 943.865 253.168 956.994 260.727 970.887C264.953 978.68 268.749 986.698 272.098 994.904C272.781 996.573 270.064 997.3 269.388 995.649C263.456 981.182 256.116 967.329 247.475 954.29C238.876 941.298 229.033 929.169 218.086 918.072C211.894 911.8 205.361 905.871 198.517 900.314C197.114 899.174 199.113 897.201 200.504 898.331L200.504 898.331Z" fill="white"/>
<path d="M456.23 998.492H293.029V831.452C293.029 795.913 322.013 767 357.639 767H391.621C427.247 767 456.23 795.913 456.23 831.452V998.492Z" fill="#F2F2F2"/>
<path d="M422.249 998.492H293.029V831.452C292.994 817.834 297.316 804.561 305.368 793.564C305.665 793.16 305.961 792.762 306.266 792.368C310.161 787.273 314.795 782.785 320.017 779.054C320.312 778.84 320.608 778.629 320.909 778.419C325.278 775.402 330.005 772.937 334.981 771.077C335.276 770.966 335.577 770.854 335.878 770.746C340.379 769.144 345.044 768.047 349.788 767.474C350.082 767.434 350.384 767.403 350.685 767.372C355.308 766.878 359.971 766.878 364.594 767.372C364.895 767.403 365.197 767.434 365.494 767.475C370.237 768.047 374.901 769.145 379.4 770.746C379.701 770.854 380.002 770.966 380.298 771.078C385.213 772.913 389.884 775.342 394.207 778.311C394.507 778.516 394.808 778.727 395.104 778.937C398.031 781.021 400.78 783.343 403.324 785.879C405.363 787.913 407.264 790.082 409.013 792.369C409.317 792.762 409.613 793.16 409.91 793.563C417.962 804.56 422.285 817.834 422.249 831.452V998.492Z" fill="#CCCCCC"/>
<path d="M411.741 923.781C415.692 923.781 418.895 920.586 418.895 916.645C418.895 912.703 415.692 909.508 411.741 909.508C407.79 909.508 404.587 912.703 404.587 916.645C404.587 920.586 407.79 923.781 411.741 923.781Z" fill="#9B51E0"/>
<path d="M442.861 993.489H437.379L434.771 972.397L442.862 972.397L442.861 993.489Z" fill="#FFB8B8"/>
<path d="M433.464 991.926H444.035V998.567H426.807C426.807 997.695 426.979 996.831 427.314 996.025C427.648 995.22 428.139 994.488 428.757 993.871C429.375 993.255 430.109 992.766 430.916 992.432C431.724 992.098 432.589 991.926 433.464 991.926V991.926Z" fill="#2F2E41"/>
<path d="M470.136 993.489H464.654L462.046 972.397L470.137 972.397L470.136 993.489Z" fill="#FFB8B8"/>
<path d="M460.738 991.926H471.31V998.567H454.082C454.082 997.695 454.254 996.831 454.589 996.025C454.923 995.22 455.413 994.488 456.032 993.871C456.65 993.255 457.383 992.766 458.191 992.432C458.999 992.098 459.864 991.926 460.738 991.926V991.926Z" fill="#2F2E41"/>
<path d="M415.362 918.058C414.968 917.479 414.706 916.82 414.594 916.128C414.483 915.437 414.524 914.729 414.717 914.056C414.909 913.382 415.247 912.758 415.707 912.229C416.167 911.7 416.738 911.277 417.379 910.992L436.013 859.757L445.182 864.749L423.906 913.711C424.315 914.817 424.304 916.035 423.873 917.133C423.443 918.232 422.623 919.134 421.57 919.67C420.517 920.206 419.303 920.338 418.159 920.041C417.015 919.744 416.02 919.039 415.362 918.058V918.058Z" fill="#FFB8B8"/>
<path d="M467.335 927.686C466.726 927.337 466.201 926.86 465.797 926.287C465.393 925.714 465.119 925.06 464.996 924.37C464.873 923.681 464.902 922.973 465.083 922.296C465.264 921.619 465.591 920.99 466.042 920.453L460.269 866.255L470.704 866.731L473.103 920.041C473.958 920.856 474.482 921.956 474.578 923.131C474.674 924.307 474.334 925.477 473.623 926.419C472.912 927.361 471.88 928.011 470.721 928.244C469.562 928.478 468.357 928.279 467.335 927.686V927.686Z" fill="#FFB8B8"/>
<path d="M450.689 850.267C456.754 850.267 461.671 845.363 461.671 839.312C461.671 833.262 456.754 828.357 450.689 828.357C444.624 828.357 439.707 833.262 439.707 839.312C439.707 845.363 444.624 850.267 450.689 850.267Z" fill="#FFB8B8"/>
<path d="M467.265 915.36H434.157L434.197 915.103C434.256 914.718 440.098 876.548 435.789 864.06C435.357 862.833 435.395 861.49 435.896 860.289C436.397 859.088 437.326 858.114 438.503 857.555H438.503C444.661 854.663 456.481 851.101 466.458 859.745C467.926 861.038 469.072 862.654 469.806 864.465C470.54 866.276 470.842 868.233 470.687 870.18L467.265 915.36Z" fill="#9B51E0"/>
<path d="M440.516 882.189L425.61 879.172L432.597 862.656C433.015 861.056 434.052 859.687 435.481 858.849C436.91 858.011 438.613 857.772 440.218 858.186C441.822 858.599 443.197 859.63 444.04 861.053C444.884 862.476 445.127 864.175 444.717 865.777L440.516 882.189Z" fill="#9B51E0"/>
<path d="M459.606 887.79L458.71 867.298C458.031 863.446 460.241 859.805 463.641 859.21C467.042 858.617 470.362 861.288 471.045 865.169L474.413 884.316L459.606 887.79Z" fill="#9B51E0"/>
<path d="M466.164 912.906C471.491 933.146 472.072 958.879 470.635 986.948L463.481 986.056L450.514 932.532L443.36 986.948L435.312 986.502C432.908 957.051 430.567 931.767 434.418 915.137L466.164 912.906Z" fill="#2F2E41"/>
<path d="M457.925 847.779C455.876 849.956 452.071 848.787 451.804 845.813C451.783 845.582 451.785 845.35 451.809 845.119C451.947 843.802 452.71 842.606 452.527 841.215C452.485 840.869 452.356 840.539 452.151 840.256C450.519 838.075 446.686 841.232 445.145 839.257C444.201 838.047 445.311 836.141 444.586 834.788C443.629 833.002 440.795 833.883 439.018 832.905C437.04 831.817 437.159 828.79 438.46 826.949C440.048 824.704 442.831 823.506 445.58 823.334C448.329 823.161 451.059 823.902 453.625 824.9C456.541 826.033 459.432 827.6 461.226 830.157C463.408 833.268 463.618 837.449 462.527 841.086C461.863 843.298 459.598 846.001 457.925 847.779Z" fill="#2F2E41"/>
<path d="M552.578 998.779H222.467C222.326 998.779 222.191 998.723 222.092 998.623C221.992 998.523 221.936 998.389 221.936 998.248C221.936 998.107 221.992 997.973 222.092 997.873C222.191 997.774 222.326 997.717 222.467 997.717H552.578C552.719 997.717 552.854 997.774 552.953 997.873C553.053 997.973 553.109 998.107 553.109 998.248C553.109 998.389 553.053 998.523 552.953 998.623C552.854 998.723 552.719 998.779 552.578 998.779V998.779Z" fill="#3F3D56"/>
<path d="M386.702 950.097H328.576C327.81 950.101 327.074 949.803 326.53 949.266C325.985 948.73 325.675 948 325.67 947.236V817.81C325.675 817.047 325.985 816.316 326.53 815.78C327.074 815.244 327.81 814.945 328.576 814.949H386.702C387.468 814.945 388.204 815.244 388.749 815.78C389.293 816.316 389.603 817.047 389.609 817.81V947.236C389.603 948 389.293 948.73 388.749 949.266C388.204 949.803 387.468 950.101 386.702 950.097V950.097Z" fill="white"/>
<path d="M389.609 856.827H325.67V857.719H389.609V856.827Z" fill="#CCCCCC"/>
<path d="M389.832 907.724H325.893V908.616H389.832V907.724Z" fill="#CCCCCC"/>
<path d="M346.684 814.949H345.79V950.543H346.684V814.949Z" fill="#CCCCCC"/>
<path d="M369.041 814.949H368.147V950.543H369.041V814.949Z" fill="#CCCCCC"/>
</g>
<defs>
<clipPath id="clip0_68_59">
<rect width="389" height="232" fill="white" transform="translate(177 767)"/>
</clipPath>
</defs>
</svg>
