<svg width="1440" height="782" viewBox="0 0 1440 782" fill="none" xmlns="http://www.w3.org/2000/svg">
<path fill-rule="evenodd" clip-rule="evenodd" d="M0 341.433L20.075 282.69C41.4883 223.948 82.9767 106.463 123.127 150.52C164.615 194.577 206.103 400.175 247.592 429.546C287.742 458.917 329.23 312.061 370.718 209.262C412.207 106.463 452.357 47.7209 493.845 18.3497C535.333 -11.0214 576.822 -11.0214 618.31 62.4065C658.46 135.834 699.948 282.69 741.437 385.489C782.925 488.288 823.075 547.031 864.563 532.345C906.052 517.66 947.54 429.546 987.69 385.489C1029.18 341.433 1070.67 341.433 1112.16 268.005C1153.64 194.577 1193.79 47.7209 1235.28 33.0353C1276.77 18.3497 1318.26 135.834 1358.41 238.633C1399.9 341.433 1441.39 429.546 1482.87 502.974C1523.02 576.402 1564.51 635.144 1585.93 664.515L1606 693.887V782H1585.93C1564.51 782 1523.02 782 1482.87 782C1441.39 782 1399.9 782 1358.41 782C1318.26 782 1276.77 782 1235.28 782C1193.79 782 1153.64 782 1112.16 782C1070.67 782 1029.18 782 987.69 782C947.54 782 906.052 782 864.563 782C823.075 782 782.925 782 741.437 782C699.948 782 658.46 782 618.31 782C576.822 782 535.333 782 493.845 782C452.357 782 412.207 782 370.718 782C329.23 782 287.742 782 247.592 782C206.103 782 164.615 782 123.127 782C82.9767 782 41.4883 782 20.075 782H0V341.433Z" fill="#9728FF"/>
<g clip-path="url(#clip0_70_60)">
<path d="M512.218 595.234C505.074 589.209 500.735 579.69 501.873 570.424C503.011 561.157 510.059 552.639 519.202 550.671C528.344 548.703 538.766 554.15 541.543 563.065C543.072 545.877 544.833 527.97 553.987 513.333C562.277 500.08 576.634 490.597 592.193 488.9C607.753 487.204 624.136 493.611 633.84 505.87C643.544 518.129 645.92 535.951 639.124 550.025C634.117 560.393 624.893 568.109 615.228 574.387C583.998 594.5 546.542 602.679 509.751 597.42L512.218 595.234Z" fill="#F2F2F2"/>
<path d="M618.453 493.967C605.614 504.405 593.836 516.08 583.289 528.821C566.782 548.694 553.425 570.975 543.682 594.888C542.969 596.632 545.807 597.391 546.512 595.666C562.453 556.803 587.901 522.549 620.528 496.038C621.993 494.847 619.906 492.786 618.453 493.967Z" fill="white"/>
<path d="M264.629 593.597C274.441 585.321 280.401 572.247 278.838 559.52C277.275 546.792 267.595 535.092 255.037 532.389C242.48 529.686 228.165 537.168 224.351 549.412C222.252 525.806 219.833 501.209 207.259 481.106C195.874 462.903 176.154 449.878 154.783 447.547C133.411 445.217 110.91 454.018 97.5813 470.856C84.2527 487.693 80.9893 512.172 90.3243 531.503C97.2011 545.743 109.871 556.341 123.145 564.963C165.495 592.47 218.03 603.942 268.018 596.599" fill="#F2F2F2"/>
<path d="M118.715 454.506C136.349 468.843 152.527 484.878 167.014 502.379C181.503 519.862 194.259 538.706 205.103 558.648C211.164 569.834 216.609 581.342 221.413 593.121C222.393 595.517 218.495 596.56 217.526 594.191C209.016 573.425 198.488 553.541 186.093 534.825C173.757 516.177 159.639 498.768 143.936 482.841C135.054 473.837 125.683 465.328 115.865 457.351C113.853 455.715 116.719 452.884 118.715 454.506L118.715 454.506Z" fill="white"/>
<path d="M485.541 598.271H251.438V358.511C251.438 307.5 293.014 266 344.117 266H392.862C443.966 266 485.541 307.5 485.541 358.511V598.271Z" fill="#F2F2F2"/>
<path d="M436.797 598.271H251.438V358.511C251.387 338.965 257.587 319.913 269.137 304.128C269.563 303.549 269.988 302.977 270.426 302.412C276.012 295.098 282.66 288.657 290.151 283.301C290.574 282.994 290.999 282.692 291.43 282.39C297.697 278.06 304.477 274.521 311.615 271.853C312.039 271.692 312.471 271.532 312.902 271.377C319.358 269.078 326.05 267.503 332.855 266.681C333.276 266.623 333.71 266.578 334.143 266.533C340.774 265.826 347.462 265.826 354.093 266.533C354.525 266.578 354.958 266.623 355.385 266.681C362.188 267.503 368.878 269.078 375.332 271.377C375.764 271.532 376.195 271.692 376.62 271.853C383.67 274.488 390.371 277.974 396.572 282.235C397.002 282.53 397.434 282.832 397.858 283.134C402.057 286.125 406.001 289.458 409.649 293.098C412.575 296.018 415.302 299.13 417.81 302.414C418.247 302.977 418.672 303.549 419.097 304.127C430.647 319.912 436.848 338.964 436.797 358.511V598.271Z" fill="#CCCCCC"/>
<path d="M421.724 491.035C427.392 491.035 431.986 486.449 431.986 480.792C431.986 475.135 427.392 470.548 421.724 470.548C416.057 470.548 411.462 475.135 411.462 480.792C411.462 486.449 416.057 491.035 421.724 491.035Z" fill="#9B51E0"/>
<path d="M466.364 591.09H458.5L454.759 560.815L466.365 560.816L466.364 591.09Z" fill="#FFB8B8"/>
<path d="M452.883 588.847H468.048V598.378H443.335C443.335 597.126 443.582 595.887 444.062 594.731C444.542 593.574 445.245 592.524 446.132 591.639C447.019 590.754 448.071 590.051 449.23 589.573C450.388 589.094 451.63 588.847 452.883 588.847Z" fill="#2F2E41"/>
<path d="M505.488 591.09H497.624L493.883 560.815L505.489 560.816L505.488 591.09Z" fill="#FFB8B8"/>
<path d="M492.008 588.847H507.172V598.378H482.459C482.459 597.126 482.706 595.887 483.186 594.731C483.666 593.574 484.369 592.524 485.256 591.639C486.143 590.754 487.195 590.051 488.354 589.573C489.512 589.094 490.754 588.847 492.008 588.847Z" fill="#2F2E41"/>
<path d="M426.918 482.821C426.352 481.989 425.976 481.043 425.816 480.051C425.656 479.058 425.716 478.042 425.992 477.075C426.268 476.108 426.753 475.213 427.412 474.454C428.072 473.694 428.891 473.088 429.811 472.678L456.541 399.139L469.694 406.304L439.174 476.58C439.761 478.169 439.744 479.917 439.127 481.493C438.509 483.07 437.333 484.365 435.823 485.135C434.312 485.904 432.571 486.093 430.93 485.667C429.289 485.24 427.861 484.228 426.918 482.821Z" fill="#FFB8B8"/>
<path d="M501.471 496.639C500.597 496.139 499.844 495.454 499.264 494.632C498.684 493.81 498.292 492.871 498.115 491.881C497.938 490.891 497.981 489.874 498.24 488.903C498.499 487.931 498.969 487.028 499.615 486.257L491.335 408.465L506.303 409.148L509.744 485.667C510.97 486.837 511.723 488.415 511.86 490.102C511.998 491.79 511.51 493.469 510.49 494.821C509.471 496.174 507.989 497.106 506.327 497.441C504.664 497.776 502.937 497.491 501.471 496.639Z" fill="#FFB8B8"/>
<path d="M477.592 385.517C486.292 385.517 493.345 378.477 493.345 369.793C493.345 361.109 486.292 354.069 477.592 354.069C468.892 354.069 461.839 361.109 461.839 369.793C461.839 378.477 468.892 385.517 477.592 385.517Z" fill="#FFB8B8"/>
<path d="M501.37 478.947H453.878L453.935 478.578C454.021 478.027 462.399 423.239 456.22 405.315C455.6 403.553 455.654 401.625 456.373 399.901C457.092 398.178 458.424 396.78 460.113 395.978H460.113C468.946 391.826 485.901 386.714 500.212 399.121C502.318 400.977 503.962 403.296 505.015 405.896C506.068 408.496 506.501 411.304 506.279 414.1L501.37 478.947Z" fill="#9B51E0"/>
<path d="M463 431.336L441.618 427.006L451.641 403.299C452.24 401.003 453.728 399.038 455.777 397.835C457.827 396.632 460.27 396.29 462.572 396.883C464.874 397.476 466.846 398.956 468.056 400.999C469.265 403.041 469.614 405.48 469.026 407.779L463 431.336Z" fill="#9B51E0"/>
<path d="M490.384 439.375L489.099 409.963C488.124 404.434 491.295 399.207 496.171 398.353C501.049 397.501 505.812 401.336 506.792 406.906L511.623 434.389L490.384 439.375Z" fill="#9B51E0"/>
<path d="M499.79 475.426C507.432 504.477 508.266 541.412 506.204 581.701L495.942 580.421L477.342 503.595L467.08 581.701L455.535 581.061C452.086 538.788 448.728 502.497 454.252 478.627L499.79 475.426Z" fill="#2F2E41"/>
<path d="M487.972 381.945C485.033 385.07 479.575 383.393 479.192 379.124C479.162 378.792 479.164 378.459 479.199 378.128C479.396 376.237 480.491 374.52 480.229 372.524C480.169 372.027 479.984 371.553 479.69 371.148C477.348 368.018 471.851 372.548 469.641 369.714C468.285 367.977 469.878 365.241 468.838 363.299C467.466 360.736 463.4 362 460.851 360.597C458.014 359.035 458.184 354.69 460.051 352.048C462.328 348.825 466.321 347.106 470.264 346.858C474.207 346.61 478.123 347.674 481.804 349.106C485.986 350.733 490.134 352.982 492.708 356.653C495.838 361.117 496.139 367.119 494.574 372.339C493.621 375.514 490.371 379.394 487.972 381.945Z" fill="#2F2E41"/>
<path d="M623.747 598.683H150.22C150.018 598.682 149.825 598.602 149.682 598.459C149.539 598.316 149.459 598.123 149.459 597.921C149.459 597.719 149.539 597.525 149.682 597.383C149.825 597.24 150.018 597.159 150.22 597.158H623.747C623.949 597.159 624.143 597.24 624.285 597.383C624.428 597.525 624.508 597.719 624.508 597.921C624.508 598.123 624.428 598.316 624.285 598.459C624.143 598.602 623.949 598.682 623.747 598.683Z" fill="#3F3D56"/>
<path d="M385.807 528.808H302.428C301.329 528.814 300.274 528.385 299.492 527.615C298.711 526.845 298.267 525.797 298.259 524.701V338.93C298.267 337.834 298.711 336.786 299.492 336.016C300.274 335.246 301.329 334.817 302.428 334.823H385.807C386.905 334.817 387.961 335.246 388.742 336.016C389.524 336.786 389.967 337.834 389.976 338.93V524.701C389.967 525.797 389.524 526.845 388.742 527.615C387.961 528.385 386.905 528.814 385.807 528.808Z" fill="white"/>
<path d="M389.976 394.932H298.259V396.213H389.976V394.932Z" fill="#CCCCCC"/>
<path d="M390.297 467.988H298.579V469.268H390.297V467.988Z" fill="#CCCCCC"/>
<path d="M328.403 334.823H327.121V529.448H328.403V334.823Z" fill="#CCCCCC"/>
<path d="M360.472 334.823H359.19V529.448H360.472V334.823Z" fill="#CCCCCC"/>
</g>
<defs>
<clipPath id="clip0_70_60">
<rect width="558" height="333" fill="white" transform="translate(85 266)"/>
</clipPath>
</defs>
</svg>
