<svg width="744" height="552" viewBox="0 0 744 552" fill="none" xmlns="http://www.w3.org/2000/svg">
<path fill-rule="evenodd" clip-rule="evenodd" d="M-139 244.504L-126.15 202.438C-112.443 160.372 -85.8867 76.2396 -60.1867 107.789C-33.63 139.339 -7.07333 286.57 19.4833 307.603C45.1833 328.636 71.74 223.471 98.2967 149.855C124.853 76.2396 150.553 34.1735 177.11 13.1405C203.667 -7.89259 230.223 -7.89259 256.78 44.6901C282.48 97.2727 309.037 202.438 335.593 276.054C362.15 349.669 387.85 391.736 414.407 381.219C440.963 370.702 467.52 307.603 493.22 276.054C519.777 244.504 546.333 244.504 572.89 191.921C599.447 139.339 625.147 34.1735 651.703 23.657C678.26 13.1405 704.817 97.2727 730.517 170.888C757.073 244.504 783.63 307.603 810.187 360.186C835.887 412.769 862.443 454.835 876.15 475.868L889 496.901V560H876.15C862.443 560 835.887 560 810.187 560C783.63 560 757.073 560 730.517 560C704.817 560 678.26 560 651.703 560C625.147 560 599.447 560 572.89 560C546.333 560 519.777 560 493.22 560C467.52 560 440.963 560 414.407 560C387.85 560 362.15 560 335.593 560C309.037 560 282.48 560 256.78 560C230.223 560 203.667 560 177.11 560C150.553 560 124.853 560 98.2967 560C71.74 560 45.1833 560 19.4833 560C-7.07333 560 -33.63 560 -60.1867 560C-85.8867 560 -112.443 560 -126.15 560H-139V244.504Z" fill="#9728FF"/>
<g clip-path="url(#clip0_68_59)">
<path d="M474.828 415.376C469.847 411.178 466.822 404.547 467.616 398.091C468.409 391.635 473.323 385.7 479.696 384.329C486.07 382.958 493.335 386.753 495.271 392.964C496.337 380.99 497.564 368.514 503.946 358.316C509.725 349.083 519.734 342.476 530.581 341.294C541.428 340.112 552.849 344.576 559.614 353.117C566.379 361.658 568.036 374.074 563.298 383.88C559.807 391.103 553.377 396.479 546.639 400.852C524.868 414.865 498.756 420.563 473.108 416.899L474.828 415.376Z" fill="#F2F2F2"/>
<path d="M548.888 344.824C539.937 352.096 531.726 360.23 524.373 369.107C512.866 382.952 503.554 398.475 496.762 415.135C496.265 416.35 498.244 416.879 498.735 415.677C509.848 388.602 527.589 364.737 550.334 346.267C551.356 345.437 549.901 344.001 548.888 344.824Z" fill="white"/>
<path d="M302.225 414.236C309.066 408.47 313.221 399.361 312.131 390.494C311.041 381.627 304.293 373.475 295.538 371.592C286.784 369.709 276.805 374.922 274.146 383.452C272.683 367.006 270.996 349.87 262.231 335.864C254.294 323.181 240.547 314.107 225.648 312.483C210.749 310.86 195.063 316.992 185.771 328.722C176.479 340.453 174.204 357.507 180.712 370.975C185.506 380.896 194.338 388.28 203.592 394.286C233.116 413.45 269.74 421.443 304.588 416.327" fill="#F2F2F2"/>
<path d="M200.504 317.331C212.797 327.32 224.075 338.492 234.174 350.684C244.275 362.865 253.168 375.994 260.727 389.887C264.953 397.68 268.749 405.698 272.098 413.904C272.781 415.573 270.064 416.3 269.388 414.649C263.456 400.182 256.116 386.329 247.475 373.29C238.876 360.298 229.033 348.169 218.086 337.072C211.894 330.8 205.361 324.871 198.517 319.314C197.114 318.174 199.113 316.201 200.504 317.331L200.504 317.331Z" fill="white"/>
<path d="M456.23 417.492H293.029V250.452C293.029 214.913 322.013 186 357.639 186H391.621C427.247 186 456.23 214.913 456.23 250.452V417.492Z" fill="#F2F2F2"/>
<path d="M422.249 417.492H293.029V250.452C292.994 236.834 297.316 223.561 305.368 212.564C305.665 212.16 305.961 211.762 306.266 211.368C310.161 206.273 314.795 201.785 320.017 198.054C320.312 197.84 320.608 197.629 320.909 197.419C325.278 194.402 330.005 191.937 334.981 190.077C335.276 189.966 335.577 189.854 335.878 189.746C340.379 188.144 345.044 187.047 349.788 186.474C350.082 186.434 350.384 186.403 350.685 186.372C355.308 185.878 359.971 185.878 364.594 186.372C364.895 186.403 365.197 186.434 365.494 186.475C370.237 187.047 374.901 188.145 379.4 189.746C379.701 189.854 380.002 189.966 380.298 190.078C385.213 191.913 389.884 194.342 394.207 197.311C394.507 197.516 394.808 197.727 395.104 197.937C398.031 200.021 400.78 202.343 403.324 204.879C405.363 206.913 407.264 209.082 409.013 211.369C409.317 211.762 409.613 212.16 409.91 212.563C417.962 223.56 422.285 236.834 422.249 250.452V417.492Z" fill="#CCCCCC"/>
<path d="M411.741 342.781C415.692 342.781 418.895 339.586 418.895 335.645C418.895 331.703 415.692 328.508 411.741 328.508C407.79 328.508 404.587 331.703 404.587 335.645C404.587 339.586 407.79 342.781 411.741 342.781Z" fill="#9B51E0"/>
<path d="M442.861 412.489H437.379L434.771 391.397L442.862 391.397L442.861 412.489Z" fill="#FFB8B8"/>
<path d="M433.464 410.926H444.035V417.567H426.807C426.807 416.695 426.979 415.831 427.314 415.025C427.648 414.22 428.139 413.488 428.757 412.871C429.375 412.255 430.109 411.766 430.916 411.432C431.724 411.098 432.589 410.926 433.464 410.926Z" fill="#2F2E41"/>
<path d="M470.136 412.489H464.654L462.046 391.397L470.137 391.397L470.136 412.489Z" fill="#FFB8B8"/>
<path d="M460.738 410.926H471.31V417.567H454.082C454.082 416.695 454.254 415.831 454.589 415.025C454.923 414.22 455.413 413.488 456.032 412.871C456.65 412.255 457.383 411.766 458.191 411.432C458.999 411.098 459.864 410.926 460.738 410.926Z" fill="#2F2E41"/>
<path d="M415.362 337.058C414.968 336.479 414.706 335.82 414.594 335.128C414.483 334.437 414.524 333.729 414.717 333.056C414.909 332.382 415.247 331.758 415.707 331.229C416.167 330.7 416.738 330.277 417.379 329.992L436.013 278.757L445.182 283.749L423.906 332.711C424.315 333.817 424.304 335.035 423.873 336.133C423.443 337.232 422.623 338.134 421.57 338.67C420.517 339.206 419.303 339.338 418.159 339.041C417.015 338.744 416.02 338.039 415.362 337.058Z" fill="#FFB8B8"/>
<path d="M467.335 346.686C466.726 346.337 466.201 345.86 465.797 345.287C465.393 344.714 465.119 344.06 464.996 343.37C464.873 342.681 464.902 341.973 465.083 341.296C465.264 340.619 465.591 339.99 466.042 339.453L460.269 285.255L470.704 285.731L473.103 339.041C473.958 339.856 474.482 340.956 474.578 342.131C474.674 343.307 474.334 344.477 473.623 345.419C472.912 346.361 471.88 347.011 470.721 347.244C469.562 347.478 468.357 347.279 467.335 346.686Z" fill="#FFB8B8"/>
<path d="M450.689 269.267C456.754 269.267 461.671 264.363 461.671 258.312C461.671 252.262 456.754 247.357 450.689 247.357C444.624 247.357 439.707 252.262 439.707 258.312C439.707 264.363 444.624 269.267 450.689 269.267Z" fill="#FFB8B8"/>
<path d="M467.265 334.36H434.157L434.197 334.103C434.256 333.718 440.098 295.548 435.789 283.06C435.357 281.833 435.395 280.49 435.896 279.289C436.397 278.088 437.326 277.114 438.503 276.555H438.503C444.661 273.663 456.481 270.101 466.458 278.745C467.926 280.038 469.072 281.654 469.806 283.465C470.54 285.276 470.842 287.233 470.687 289.18L467.265 334.36Z" fill="#9B51E0"/>
<path d="M440.516 301.189L425.61 298.172L432.597 281.656C433.015 280.056 434.052 278.687 435.481 277.849C436.91 277.011 438.613 276.772 440.218 277.186C441.822 277.599 443.197 278.63 444.04 280.053C444.884 281.476 445.127 283.175 444.717 284.777L440.516 301.189Z" fill="#9B51E0"/>
<path d="M459.606 306.79L458.71 286.298C458.031 282.446 460.241 278.805 463.641 278.21C467.042 277.617 470.362 280.288 471.045 284.169L474.413 303.316L459.606 306.79Z" fill="#9B51E0"/>
<path d="M466.164 331.906C471.491 352.146 472.072 377.879 470.635 405.948L463.481 405.056L450.514 351.532L443.36 405.948L435.312 405.502C432.908 376.051 430.567 350.767 434.418 334.137L466.164 331.906Z" fill="#2F2E41"/>
<path d="M457.925 266.779C455.876 268.956 452.071 267.787 451.804 264.813C451.783 264.582 451.785 264.35 451.809 264.119C451.947 262.802 452.71 261.606 452.527 260.215C452.485 259.869 452.356 259.539 452.151 259.256C450.519 257.075 446.686 260.232 445.145 258.257C444.201 257.047 445.311 255.141 444.586 253.788C443.629 252.002 440.795 252.883 439.018 251.905C437.04 250.817 437.159 247.79 438.46 245.949C440.048 243.704 442.831 242.506 445.58 242.334C448.329 242.161 451.059 242.902 453.625 243.9C456.541 245.033 459.432 246.6 461.226 249.157C463.408 252.268 463.618 256.449 462.527 260.086C461.863 262.298 459.598 265.001 457.925 266.779Z" fill="#2F2E41"/>
<path d="M552.578 417.779H222.467C222.326 417.779 222.191 417.723 222.092 417.623C221.992 417.523 221.936 417.389 221.936 417.248C221.936 417.107 221.992 416.973 222.092 416.873C222.191 416.774 222.326 416.717 222.467 416.717H552.578C552.719 416.717 552.854 416.774 552.953 416.873C553.053 416.973 553.109 417.107 553.109 417.248C553.109 417.389 553.053 417.523 552.953 417.623C552.854 417.723 552.719 417.779 552.578 417.779Z" fill="#3F3D56"/>
<path d="M386.702 369.097H328.576C327.81 369.101 327.074 368.803 326.53 368.266C325.985 367.73 325.675 367 325.67 366.236V236.81C325.675 236.047 325.985 235.316 326.53 234.78C327.074 234.244 327.81 233.945 328.576 233.949H386.702C387.468 233.945 388.204 234.244 388.749 234.78C389.293 235.316 389.603 236.047 389.609 236.81V366.236C389.603 367 389.293 367.73 388.749 368.266C388.204 368.803 387.468 369.101 386.702 369.097Z" fill="white"/>
<path d="M389.609 275.827H325.67V276.719H389.609V275.827Z" fill="#CCCCCC"/>
<path d="M389.832 326.724H325.893V327.616H389.832V326.724Z" fill="#CCCCCC"/>
<path d="M346.684 233.949H345.79V369.543H346.684V233.949Z" fill="#CCCCCC"/>
<path d="M369.041 233.949H368.147V369.543H369.041V233.949Z" fill="#CCCCCC"/>
</g>
<defs>
<clipPath id="clip0_68_59">
<rect width="389" height="232" fill="white" transform="translate(177 186)"/>
</clipPath>
</defs>
</svg>
