<svg width="1440" height="1024" viewBox="0 0 1440 1024" fill="none" xmlns="http://www.w3.org/2000/svg">
<path fill-rule="evenodd" clip-rule="evenodd" d="M-332 583.433L-305.7 524.69C-277.647 465.948 -223.293 348.463 -170.693 392.52C-116.34 436.577 -61.9867 642.175 -7.63333 671.546C44.9667 700.917 99.32 554.061 153.673 451.262C208.027 348.463 260.627 289.721 314.98 260.35C369.333 230.979 423.687 230.979 478.04 304.406C530.64 377.834 584.993 524.69 639.347 627.489C693.7 730.288 746.3 789.031 800.653 774.345C855.007 759.66 909.36 671.546 961.96 627.489C1016.31 583.433 1070.67 583.433 1125.02 510.005C1179.37 436.577 1231.97 289.721 1286.33 275.035C1340.68 260.35 1395.03 377.834 1447.63 480.633C1501.99 583.433 1556.34 671.546 1610.69 744.974C1663.29 818.402 1717.65 877.144 1745.7 906.515L1772 935.887V1024H1745.7C1717.65 1024 1663.29 1024 1610.69 1024C1556.34 1024 1501.99 1024 1447.63 1024C1395.03 1024 1340.68 1024 1286.33 1024C1231.97 1024 1179.37 1024 1125.02 1024C1070.67 1024 1016.31 1024 961.96 1024C909.36 1024 855.007 1024 800.653 1024C746.3 1024 693.7 1024 639.347 1024C584.993 1024 530.64 1024 478.04 1024C423.687 1024 369.333 1024 314.98 1024C260.627 1024 208.027 1024 153.673 1024C99.32 1024 44.9667 1024 -7.63333 1024C-61.9867 1024 -116.34 1024 -170.693 1024C-223.293 1024 -277.647 1024 -305.7 1024H-332V583.433Z" fill="#BA71FF"/>
<g clip-path="url(#clip0_102_59)">
<path d="M512.218 837.234C505.074 831.209 500.735 821.69 501.873 812.424C503.011 803.157 510.059 794.639 519.202 792.671C528.344 790.703 538.766 796.15 541.543 805.065C543.072 787.877 544.833 769.97 553.987 755.333C562.277 742.08 576.634 732.597 592.193 730.9C607.753 729.204 624.136 735.611 633.84 747.87C643.544 760.129 645.92 777.951 639.124 792.025C634.117 802.393 624.893 810.109 615.228 816.387C583.998 836.5 546.542 844.679 509.751 839.42L512.218 837.234Z" fill="#F2F2F2"/>
<path d="M618.453 735.967C605.614 746.405 593.836 758.08 583.289 770.821C566.782 790.694 553.425 812.975 543.682 836.888C542.969 838.632 545.807 839.391 546.512 837.666C562.453 798.803 587.901 764.549 620.528 738.038C621.993 736.847 619.906 734.786 618.453 735.967Z" fill="white"/>
<path d="M264.629 835.597C274.441 827.321 280.401 814.247 278.838 801.52C277.275 788.792 267.595 777.092 255.037 774.389C242.48 771.686 228.165 779.168 224.351 791.412C222.252 767.806 219.833 743.209 207.259 723.106C195.874 704.903 176.154 691.878 154.783 689.547C133.411 687.217 110.91 696.018 97.5813 712.856C84.2527 729.693 80.9893 754.172 90.3243 773.503C97.2011 787.743 109.871 798.341 123.145 806.963C165.495 834.47 218.03 845.942 268.018 838.599" fill="#F2F2F2"/>
<path d="M118.715 696.506C136.349 710.843 152.527 726.878 167.014 744.379C181.503 761.862 194.259 780.706 205.103 800.648C211.164 811.834 216.609 823.342 221.413 835.121C222.393 837.517 218.495 838.56 217.526 836.191C209.016 815.425 198.488 795.541 186.093 776.825C173.757 758.177 159.639 740.768 143.936 724.841C135.054 715.837 125.683 707.328 115.865 699.351C113.853 697.715 116.719 694.884 118.715 696.506L118.715 696.506Z" fill="white"/>
<path d="M485.541 840.271H251.438V600.511C251.438 549.5 293.014 508 344.117 508H392.862C443.966 508 485.541 549.5 485.541 600.511V840.271Z" fill="#F2F2F2"/>
<path d="M436.797 840.271H251.438V600.511C251.387 580.965 257.587 561.913 269.137 546.128C269.563 545.549 269.988 544.977 270.426 544.412C276.012 537.098 282.66 530.657 290.151 525.301C290.574 524.994 290.999 524.692 291.43 524.39C297.697 520.06 304.477 516.521 311.615 513.853C312.039 513.692 312.471 513.532 312.902 513.377C319.358 511.078 326.05 509.503 332.855 508.681C333.276 508.623 333.71 508.578 334.143 508.533C340.774 507.826 347.462 507.826 354.093 508.533C354.525 508.578 354.958 508.623 355.385 508.681C362.188 509.503 368.878 511.078 375.332 513.377C375.764 513.532 376.195 513.692 376.62 513.853C383.67 516.488 390.371 519.974 396.572 524.235C397.002 524.53 397.434 524.832 397.858 525.134C402.057 528.125 406.001 531.458 409.649 535.098C412.575 538.018 415.302 541.13 417.81 544.414C418.247 544.977 418.672 545.549 419.097 546.127C430.647 561.912 436.848 580.964 436.797 600.511V840.271Z" fill="#CCCCCC"/>
<path d="M421.724 733.035C427.392 733.035 431.986 728.449 431.986 722.792C431.986 717.135 427.392 712.548 421.724 712.548C416.057 712.548 411.462 717.135 411.462 722.792C411.462 728.449 416.057 733.035 421.724 733.035Z" fill="#9B51E0"/>
<path d="M466.364 833.09H458.5L454.759 802.815L466.365 802.816L466.364 833.09Z" fill="#FFB8B8"/>
<path d="M452.883 830.847H468.048V840.378H443.335C443.335 839.126 443.582 837.887 444.062 836.731C444.542 835.574 445.245 834.524 446.132 833.639C447.019 832.754 448.071 832.051 449.23 831.573C450.388 831.094 451.63 830.847 452.883 830.847V830.847Z" fill="#2F2E41"/>
<path d="M505.488 833.09H497.624L493.883 802.815L505.489 802.816L505.488 833.09Z" fill="#FFB8B8"/>
<path d="M492.008 830.847H507.172V840.378H482.459C482.459 839.126 482.706 837.887 483.186 836.731C483.666 835.574 484.369 834.524 485.256 833.639C486.143 832.754 487.195 832.051 488.354 831.573C489.512 831.094 490.754 830.847 492.008 830.847V830.847Z" fill="#2F2E41"/>
<path d="M426.918 724.821C426.352 723.989 425.976 723.043 425.816 722.051C425.656 721.058 425.716 720.042 425.992 719.075C426.268 718.108 426.753 717.213 427.412 716.454C428.072 715.694 428.891 715.088 429.811 714.678L456.541 641.139L469.694 648.304L439.174 718.58C439.761 720.169 439.744 721.917 439.127 723.493C438.509 725.07 437.333 726.365 435.823 727.135C434.312 727.904 432.571 728.093 430.93 727.667C429.289 727.24 427.861 726.228 426.918 724.821V724.821Z" fill="#FFB8B8"/>
<path d="M501.471 738.639C500.597 738.139 499.844 737.454 499.264 736.632C498.684 735.81 498.292 734.871 498.115 733.881C497.938 732.891 497.981 731.874 498.24 730.903C498.499 729.931 498.969 729.028 499.615 728.257L491.335 650.465L506.303 651.148L509.744 727.667C510.97 728.837 511.723 730.415 511.86 732.102C511.998 733.79 511.51 735.469 510.49 736.821C509.471 738.174 507.989 739.106 506.327 739.441C504.664 739.776 502.937 739.491 501.471 738.639V738.639Z" fill="#FFB8B8"/>
<path d="M477.592 627.517C486.292 627.517 493.345 620.477 493.345 611.793C493.345 603.109 486.292 596.069 477.592 596.069C468.892 596.069 461.839 603.109 461.839 611.793C461.839 620.477 468.892 627.517 477.592 627.517Z" fill="#FFB8B8"/>
<path d="M501.37 720.947H453.878L453.935 720.578C454.021 720.027 462.399 665.239 456.22 647.315C455.6 645.553 455.654 643.625 456.373 641.901C457.092 640.178 458.424 638.78 460.113 637.978H460.113C468.946 633.826 485.901 628.714 500.212 641.121C502.318 642.977 503.962 645.296 505.015 647.896C506.068 650.496 506.501 653.304 506.279 656.1L501.37 720.947Z" fill="#9B51E0"/>
<path d="M463 673.336L441.618 669.006L451.641 645.299C452.24 643.003 453.728 641.038 455.777 639.835C457.827 638.632 460.27 638.29 462.572 638.883C464.874 639.476 466.846 640.956 468.056 642.999C469.265 645.041 469.614 647.48 469.026 649.779L463 673.336Z" fill="#9B51E0"/>
<path d="M490.384 681.375L489.099 651.963C488.124 646.434 491.295 641.207 496.171 640.353C501.049 639.501 505.812 643.336 506.792 648.906L511.623 676.389L490.384 681.375Z" fill="#9B51E0"/>
<path d="M499.79 717.426C507.432 746.477 508.266 783.412 506.204 823.701L495.942 822.421L477.342 745.595L467.08 823.701L455.535 823.061C452.086 780.788 448.728 744.497 454.252 720.627L499.79 717.426Z" fill="#2F2E41"/>
<path d="M487.972 623.945C485.033 627.07 479.575 625.393 479.192 621.124C479.162 620.792 479.164 620.459 479.199 620.128C479.396 618.237 480.491 616.52 480.229 614.524C480.169 614.027 479.984 613.553 479.69 613.148C477.348 610.018 471.851 614.548 469.641 611.714C468.285 609.977 469.878 607.241 468.838 605.299C467.466 602.736 463.4 604 460.851 602.597C458.014 601.035 458.184 596.69 460.051 594.048C462.328 590.825 466.321 589.106 470.264 588.858C474.207 588.61 478.123 589.674 481.804 591.106C485.986 592.733 490.134 594.982 492.708 598.653C495.838 603.117 496.139 609.119 494.574 614.339C493.621 617.514 490.371 621.394 487.972 623.945Z" fill="#2F2E41"/>
<path d="M623.747 840.683H150.22C150.018 840.682 149.825 840.602 149.682 840.459C149.539 840.316 149.459 840.123 149.459 839.921C149.459 839.719 149.539 839.525 149.682 839.383C149.825 839.24 150.018 839.159 150.22 839.158H623.747C623.949 839.159 624.143 839.24 624.285 839.383C624.428 839.525 624.508 839.719 624.508 839.921C624.508 840.123 624.428 840.316 624.285 840.459C624.143 840.602 623.949 840.682 623.747 840.683V840.683Z" fill="#3F3D56"/>
<path d="M385.807 770.808H302.428C301.329 770.814 300.274 770.385 299.492 769.615C298.711 768.845 298.267 767.797 298.259 766.701V580.93C298.267 579.834 298.711 578.786 299.492 578.016C300.274 577.246 301.329 576.817 302.428 576.823H385.807C386.905 576.817 387.961 577.246 388.742 578.016C389.524 578.786 389.967 579.834 389.976 580.93V766.701C389.967 767.797 389.524 768.845 388.742 769.615C387.961 770.385 386.905 770.814 385.807 770.808V770.808Z" fill="white"/>
<path d="M389.976 636.932H298.259V638.213H389.976V636.932Z" fill="#CCCCCC"/>
<path d="M390.297 709.988H298.579V711.268H390.297V709.988Z" fill="#CCCCCC"/>
<path d="M328.403 576.823H327.121V771.448H328.403V576.823Z" fill="#CCCCCC"/>
<path d="M360.472 576.823H359.19V771.448H360.472V576.823Z" fill="#CCCCCC"/>
</g>
<defs>
<clipPath id="clip0_102_59">
<rect width="558" height="333" fill="white" transform="translate(85 508)"/>
</clipPath>
</defs>
</svg>
