<svg width="158" height="92" viewBox="0 0 158 92" fill="none" xmlns="http://www.w3.org/2000/svg">
<path d="M34.4611 51.3989C33.7229 50.5852 33.0967 49.6774 32.5991 48.6994C31.8131 47.1664 30.7266 45.8054 29.4038 44.6967C28.0809 43.588 26.5484 42.7539 24.8966 42.2437C23.4522 41.7994 21.9407 41.6108 20.4308 41.6865C21.5298 41.624 22.6119 41.977 23.4603 42.675C24.3087 43.3729 24.8608 44.364 25.0057 45.4498C25.4031 47.7959 26.448 49.9859 28.024 51.7751C29.6 53.5644 31.6449 54.8824 33.9302 55.582C36.5434 56.3811 39.3437 56.3381 41.9309 55.459C39.049 54.9913 36.4139 53.559 34.4611 51.3989Z" fill="white"/>
<path d="M15.8121 41.8314C16.1479 43.2994 16.7387 44.6978 17.5577 45.9639C16.9597 45.0446 16.7295 43.9357 16.9126 42.8559C17.0957 41.776 17.6788 40.8037 18.5469 40.1306C20.3907 38.6131 21.7748 36.6161 22.5454 34.3621C23.3159 32.1081 23.4424 29.6855 22.9109 27.3641C22.3043 24.7085 20.8652 22.3136 18.8015 20.5249C19.8289 23.2578 19.888 26.2578 18.9688 29.0287C18.6169 30.0748 18.1278 31.07 17.5141 31.9887C16.5719 33.4319 15.93 35.0485 15.6264 36.7428C15.3229 38.4371 15.3637 40.1748 15.7467 41.8531L15.8121 41.8314Z" fill="white"/>
<path d="M22.7584 46.2605C22.2636 47.2394 21.4151 47.9961 20.3832 48.3786C19.3513 48.7611 18.2121 48.7413 17.1942 48.3231C14.9511 47.4866 12.5183 47.2873 10.1678 47.7474C7.81727 48.2075 5.64166 49.3089 3.88405 50.9285C1.88002 52.7836 0.5199 55.2241 0 57.898C1.86482 55.6456 4.44592 54.0934 7.317 53.4978C8.39564 53.2781 9.49756 53.193 10.5973 53.2445C12.3223 53.3334 14.0477 53.0776 15.6717 52.4921C17.2956 51.9066 18.7853 51.0034 20.0527 49.8357C21.1619 48.8108 22.0824 47.6008 22.7729 46.2605H22.7584Z" fill="white"/>
<path d="M45.512 57V34.6H59.464V37.864H49.048V43.672H57.256V46.936H49.048V53.736H59.768V57H45.512ZM62.5915 57V41.192H65.3275L65.7755 43.912L64.8955 43.32C65.7168 42.5093 66.5755 41.9013 67.4715 41.496C68.3675 41.0907 69.3488 40.888 70.4155 40.888C71.2262 40.888 71.9728 41.016 72.6555 41.272C73.3382 41.5173 73.9408 41.9173 74.4635 42.472C74.9968 43.0267 75.4235 43.7627 75.7435 44.68L74.8795 44.376C75.3702 43.288 76.1008 42.4347 77.0715 41.816C78.0528 41.1973 79.2795 40.888 80.7515 40.888C82.1275 40.888 83.2688 41.16 84.1755 41.704C85.0928 42.2373 85.7755 43.0267 86.2235 44.072C86.6715 45.1067 86.8955 46.3813 86.8955 47.896V57H83.5515V48.04C83.5515 46.5573 83.2848 45.4747 82.7515 44.792C82.2288 44.0987 81.3648 43.752 80.1595 43.752C79.4022 43.752 78.7782 43.8747 78.2875 44.12C77.7968 44.3547 77.4128 44.68 77.1355 45.096C76.8688 45.5013 76.6822 45.9547 76.5755 46.456C76.4688 46.9573 76.4155 47.4693 76.4155 47.992V57H73.0715V48.376C73.0715 47.2133 72.9382 46.296 72.6715 45.624C72.4048 44.952 72.0155 44.472 71.5035 44.184C70.9915 43.896 70.3728 43.752 69.6475 43.752C68.6448 43.752 67.7755 43.976 67.0395 44.424C66.3142 44.872 65.7755 45.544 65.4235 46.44L65.9355 44.632V57H62.5915ZM98.513 57.32C97.361 57.32 96.2997 57.0853 95.329 56.616C94.3583 56.1467 93.5957 55.4693 93.041 54.584L93.953 53.928L93.553 57H90.497V33H93.841V44.072L93.089 43.56C93.697 42.76 94.4703 42.1147 95.409 41.624C96.3477 41.1333 97.3823 40.888 98.513 40.888C100.017 40.888 101.297 41.272 102.353 42.04C103.42 42.7973 104.23 43.8 104.785 45.048C105.35 46.296 105.633 47.6507 105.633 49.112C105.633 50.616 105.334 51.992 104.737 53.24C104.14 54.4773 103.308 55.4693 102.241 56.216C101.174 56.952 99.9317 57.32 98.513 57.32ZM98.065 54.456C98.929 54.456 99.6703 54.2213 100.289 53.752C100.908 53.2827 101.382 52.6427 101.713 51.832C102.044 51.0213 102.209 50.1147 102.209 49.112C102.209 48.0773 102.044 47.16 101.713 46.36C101.382 45.5493 100.908 44.9147 100.289 44.456C99.6703 43.9867 98.929 43.752 98.065 43.752C97.1903 43.752 96.4223 43.96 95.761 44.376C95.1103 44.792 94.5983 45.4 94.225 46.2C93.8517 46.9893 93.665 47.96 93.665 49.112C93.665 50.2853 93.8517 51.2667 94.225 52.056C94.5983 52.8453 95.1103 53.4427 95.761 53.848C96.4223 54.2533 97.1903 54.456 98.065 54.456ZM112.562 57.32C111.58 57.32 110.791 57.1333 110.194 56.76C109.596 56.3867 109.159 55.9013 108.882 55.304C108.615 54.696 108.482 54.0507 108.482 53.368V33H111.826V51.72C111.826 52.5947 111.879 53.24 111.986 53.656C112.103 54.0613 112.322 54.3227 112.642 54.44C112.972 54.5573 113.458 54.616 114.098 54.616L113.714 57.32H112.562ZM119.972 57.32C119.055 57.32 118.239 57.128 117.524 56.744C116.809 56.3493 116.244 55.8053 115.828 55.112C115.423 54.4187 115.22 53.6027 115.22 52.664C115.22 51.768 115.423 51.0053 115.828 50.376C116.233 49.736 116.772 49.2027 117.444 48.776C118.116 48.3493 118.852 48.0133 119.652 47.768C120.463 47.512 121.284 47.3253 122.116 47.208C122.948 47.0907 123.721 47.0267 124.436 47.016C124.425 45.768 124.159 44.9253 123.636 44.488C123.113 44.04 122.319 43.816 121.252 43.816C120.612 43.816 119.956 43.912 119.284 44.104C118.612 44.2853 117.855 44.632 117.012 45.144L116.628 42.424C117.396 41.9547 118.255 41.5813 119.204 41.304C120.153 41.0267 121.135 40.888 122.148 40.888C123.417 40.888 124.468 41.112 125.3 41.56C126.132 42.008 126.756 42.7493 127.172 43.784C127.588 44.8187 127.796 46.2053 127.796 47.944V51.624C127.796 52.392 127.828 52.9947 127.892 53.432C127.967 53.8587 128.121 54.1627 128.356 54.344C128.591 54.5253 128.948 54.616 129.428 54.616H129.812L129.396 57.32H128.66C127.871 57.32 127.231 57.2347 126.74 57.064C126.26 56.8933 125.871 56.6533 125.572 56.344C125.273 56.024 125.023 55.6453 124.82 55.208C124.255 55.848 123.551 56.36 122.708 56.744C121.876 57.128 120.964 57.32 119.972 57.32ZM120.996 54.696C121.593 54.696 122.207 54.5467 122.836 54.248C123.476 53.9493 124.015 53.5333 124.452 53V49.288C123.257 49.3413 122.228 49.4853 121.364 49.72C120.511 49.944 119.849 50.2853 119.38 50.744C118.921 51.2027 118.692 51.7893 118.692 52.504C118.692 53.272 118.895 53.832 119.3 54.184C119.705 54.5253 120.271 54.696 120.996 54.696Z" fill="white"/>
</svg>
